<svg width="80" height="80" viewBox="0 0 80 80" fill="none" xmlns="http://www.w3.org/2000/svg">
<path fill-rule="evenodd" clip-rule="evenodd" d="M56.7627 64.4327H21.0225C18.9033 64.4327 17.1841 62.5272 17.1841 60.1777C17.1841 57.8281 18.902 55.9226 21.0225 55.9226H34.4975C36.0096 55.9226 37.2368 54.5633 37.2381 52.8857V52.742C37.2381 51.1406 36.0691 49.8422 34.6244 49.8422H34.5066C30.6993 49.8422 27.6286 46.4027 27.6791 42.1826C27.6856 41.6143 27.6856 41.0447 27.6791 40.4764C27.6299 36.2576 30.6993 32.8207 34.4937 32.8207H51.0822C52.7793 32.8207 54.1541 31.2957 54.1541 29.4148C54.1541 26.4995 56.285 24.1357 58.9142 24.1357H62.552C65.1812 24.1357 67.3121 26.4995 67.3121 29.4148V39.0253C67.3121 41.7386 69.2953 43.9367 71.7421 43.9367H73.891C77.2646 43.9367 80 46.9697 80 50.7109C80 54.452 77.2646 57.4851 73.891 57.4851H62.7707C61.2199 57.4851 60.0107 58.8909 60.0548 60.6087L60.0573 60.7019C60.1027 62.7499 58.6087 64.4327 56.7601 64.4327H56.7627Z" fill="url(#paint0_linear_1815_6621)"/>
<path fill-rule="evenodd" clip-rule="evenodd" d="M23.2387 22.3582H58.9789C61.0981 22.3582 62.8173 24.2702 62.8173 26.6288C62.8173 28.9874 61.0994 30.8994 58.9789 30.8994H45.5038C43.9918 30.8994 42.7645 32.2639 42.7632 33.9467V34.0904C42.7632 35.6969 43.9322 37.0005 45.3769 37.0005H45.4935C49.3008 37.0005 52.3715 40.453 52.321 44.6886C52.3145 45.2595 52.3145 45.8304 52.321 46.4013C52.3702 50.6356 49.3008 54.0855 45.5064 54.0855H28.9179C27.2207 54.0855 25.8459 55.6156 25.8459 57.5043C25.8459 60.4312 23.7151 62.8028 21.0858 62.8028H17.4481C14.8188 62.8028 12.688 60.4312 12.688 57.5043V47.8576C12.688 45.1352 10.7047 42.9281 8.258 42.9281H6.10903C2.73541 42.9281 0 39.8847 0 36.1293C0 32.3739 2.73541 29.3305 6.10903 29.3305H17.2293C18.7802 29.3305 19.9893 27.9195 19.9453 26.1952L19.9427 26.102C19.8974 24.0463 21.3913 22.3569 23.2387 22.3569V22.3582Z" fill="url(#paint1_linear_1815_6621)"/>
<path d="M66.4093 42.9863C64.9257 46.1514 60.6925 48.1501 60.6925 48.1501C60.6925 48.1501 58.9475 43.3488 60.431 40.1837C61.9159 37.0186 64.4558 35.0794 66.1064 35.8548C67.7569 36.6276 67.8916 39.8212 66.4093 42.9863ZM57.2658 46.7249C58.919 49.8032 57.996 54.3923 57.996 54.3923C57.996 54.3923 53.1025 52.9282 51.4494 49.8472C49.7962 46.7663 49.7574 43.5727 51.3652 42.7106C52.9705 41.8497 55.6127 43.6465 57.2658 46.7249ZM55.4664 64.4934C55.4159 65.0979 55.3486 65.5135 55.3317 65.6183C55.3292 65.63 55.3292 65.6403 55.3266 65.6442V65.6468C55.3266 65.6468 55.324 65.6468 55.324 65.6442L55.3072 65.6416C55.2541 65.6248 55.0961 65.5769 54.8579 65.4979C53.588 65.0682 50.0849 63.6986 48.6958 61.2247C46.9844 58.1775 46.8886 54.9813 48.477 54.0907C50.0655 53.1987 52.7413 54.945 54.4527 57.9923C55.2178 59.3581 55.4754 61.0332 55.5208 62.4701C55.5466 63.2429 55.513 63.9458 55.4651 64.4934H55.4664ZM65.6196 55.4991C62.2356 56.3755 57.996 54.3923 57.996 54.3923C57.996 54.3923 60.5799 49.9845 63.9639 49.1081C67.3479 48.2317 70.46 48.9527 70.9183 50.7159C71.3765 52.4816 69.0036 54.6227 65.6196 55.4978V55.4991Z" fill="#E1E4E5"/>
<path d="M62.6376 65.8043C59.3649 67.0276 54.9414 65.4975 54.9414 65.4975C54.9414 65.4975 57.0528 60.8451 60.3268 59.6205C63.5994 58.3972 66.7724 58.7882 67.4106 60.4969C68.0488 62.2056 65.9128 64.581 62.6376 65.8043Z" fill="#E1E4E5"/>
<path d="M61.6413 46.941C61.6129 46.9838 59.0807 51.2285 56.3984 63.0306C56.2016 63.894 56.0048 64.8015 55.8081 65.7465L55.7498 65.7348L55.3278 65.6455V65.6429H55.3252L55.3084 65.6403C55.2553 65.6235 55.0973 65.5756 54.8591 65.4966C55.0689 64.4843 55.2902 63.4759 55.522 62.4688C58.2095 50.7469 60.6963 46.6096 60.8064 46.4245L61.6413 46.941ZM11.5742 18.9277C13.0578 22.0928 17.291 24.0915 17.291 24.0915C17.291 24.0915 19.0361 19.2902 17.5525 16.1251C16.0676 12.96 13.5277 11.0208 11.8771 11.7962C10.2266 12.569 10.0919 15.7626 11.5742 18.9277ZM14.7213 54.9476C17.5887 56.9477 22.2543 56.5619 22.2543 56.5619C22.2543 56.5619 21.3637 51.5314 18.4975 49.5314C15.6288 47.5326 12.461 47.1236 11.4176 48.62C10.3742 50.1152 11.8551 52.9476 14.7213 54.9476ZM25.5257 67.1653C29.2864 66.4947 32.594 62.5917 32.594 62.5917C32.594 62.5917 28.0177 59.3917 24.257 60.0623C20.495 60.7354 17.7298 62.8675 18.0807 64.8287C18.4289 66.7899 21.7637 67.8358 25.5244 67.1653H25.5257ZM20.7164 22.6663C19.0632 25.7446 19.9863 30.3337 19.9863 30.3337C19.9863 30.3337 24.8797 28.8696 26.5329 25.7886C28.186 22.7077 28.2249 19.5141 26.617 18.652C25.0118 17.7911 22.3696 19.5879 20.7164 22.6663ZM22.5158 40.4348C22.5663 41.0393 22.6336 41.4549 22.6505 41.5597C22.6531 41.5714 22.6531 41.5817 22.6557 41.5856V41.5882C22.6557 41.5882 22.6582 41.5882 22.6582 41.5856L22.6751 41.583C22.7281 41.5662 22.8861 41.5183 23.1243 41.4394C24.3942 41.0096 27.8973 39.64 29.2864 37.1662C30.9978 34.1189 31.0936 30.9227 29.5052 30.0321C27.9167 29.1389 25.2409 30.8865 23.5295 33.9337C22.7644 35.2995 22.5068 36.9746 22.4615 38.4115C22.4356 39.1843 22.4679 39.8872 22.5171 40.4348H22.5158ZM12.3626 31.4405C15.7466 32.3169 19.9863 30.3337 19.9863 30.3337C19.9863 30.3337 17.4023 25.9259 14.0183 25.0495C10.6344 24.1731 7.52224 24.8928 7.06396 26.6573C6.60569 28.423 8.97862 30.5641 12.3626 31.4392V31.4405Z" fill="#E1E4E5"/>
<path d="M15.3472 41.7457C18.6199 42.969 23.0434 41.4389 23.0434 41.4389C23.0434 41.4389 20.9319 36.7865 17.658 35.5619C14.3854 34.3386 11.2124 34.7296 10.5742 36.4383C9.93595 38.147 12.072 40.5224 15.3472 41.7457Z" fill="#E1E4E5"/>
<path d="M16.3428 22.8824C16.3713 22.9252 18.9034 27.1699 21.5857 38.972C21.7825 39.8354 21.9793 40.7429 22.1761 41.6879L22.2343 41.6762L22.6563 41.5869V41.5843H22.6589L22.6758 41.5817C22.7288 41.5649 22.8868 41.517 23.125 41.438C22.9153 40.4257 22.6939 39.4173 22.4622 38.4102C19.7747 26.6883 17.2878 22.551 17.1778 22.3659L16.3428 22.8824ZM65.0998 17.3354C63.4726 20.8099 58.8264 23.0028 58.8264 23.0028C58.8264 23.0028 56.9117 17.7329 58.539 14.2584C60.1688 10.7852 62.956 8.657 64.7684 9.5075C66.5808 10.3554 66.7284 13.861 65.0998 17.3341V17.3354ZM55.0644 21.4391C56.8794 24.8177 55.8644 29.8534 55.8644 29.8534C55.8644 29.8534 50.4946 28.2469 48.6796 24.8656C46.8646 21.4844 46.8232 17.9788 48.5877 17.0325C50.3496 16.0875 53.2494 18.0591 55.0644 21.4391ZM53.0889 40.9422C53.0332 41.6063 52.9594 42.062 52.9413 42.1772C52.9387 42.1902 52.9387 42.2005 52.9361 42.2057V42.2083C52.9361 42.2083 52.9335 42.2083 52.9335 42.2057L52.9154 42.2031C52.8572 42.185 52.6837 42.1319 52.4235 42.0452C51.0305 41.574 47.1844 40.0697 45.6594 37.3538C43.781 34.0088 43.6761 30.5007 45.4199 29.5233C47.1637 28.5434 50.0997 30.4605 51.9781 33.8056C52.8183 35.3046 53.1005 37.1428 53.1497 38.7196C53.1743 39.46 53.1536 40.2018 53.0889 40.9396V40.9422ZM64.2325 31.0716C60.5184 32.0334 55.8644 29.8573 55.8644 29.8573C55.8644 29.8573 58.7008 25.0197 62.4149 24.0579C66.129 23.096 69.5453 23.887 70.0476 25.8223C70.5512 27.7602 67.9466 30.1097 64.2325 31.0716Z" fill="#E1E4E5"/>
<path d="M60.9597 42.379C57.3673 43.7227 52.5127 42.0424 52.5127 42.0424C52.5127 42.0424 54.83 36.9356 58.4224 35.5919C62.0148 34.2482 65.4971 34.678 66.1975 36.5537C66.8979 38.4295 64.5534 41.0366 60.9584 42.379H60.9597Z" fill="#E1E4E5"/>
<path d="M59.8658 21.6761C59.8347 21.724 57.0553 26.3829 54.1114 39.3346C53.8862 40.3261 53.67 41.3203 53.4629 42.3158L53.3994 42.3029L52.936 42.2058V42.2032H52.9334L52.9153 42.2006C52.857 42.1825 52.6835 42.1294 52.4233 42.0427C52.6538 40.932 52.8959 39.8239 53.1496 38.7197C56.0999 25.8535 58.8275 21.3136 58.9492 21.1104L59.8658 21.6761Z" fill="#E1E4E5"/>
<path d="M40.0007 66.9515C53.4199 66.9515 64.2984 56.0734 64.2984 42.6547C64.2984 29.2359 53.4199 18.3579 40.0007 18.3579C26.5815 18.3579 15.7031 29.2359 15.7031 42.6547C15.7031 56.0734 26.5815 66.9515 40.0007 66.9515Z" fill="#007CBA"/>
<path d="M17.031 69.5108C17.7767 68.7937 17.8224 67.6314 17.133 66.9146C16.4437 66.1978 15.2804 66.198 14.5347 66.915C13.7891 67.6321 13.7434 68.7945 14.4327 69.5113C15.122 70.228 16.2853 70.2278 17.031 69.5108Z" fill="#007CBA"/>
<path d="M75.3312 31.6513C75.3507 30.6571 74.5279 29.8346 73.4936 29.8144C72.4592 29.7942 71.6049 30.5838 71.5855 31.5781C71.5661 32.5724 72.3888 33.3948 73.4232 33.415C74.4575 33.4353 75.3118 32.6456 75.3312 31.6513Z" fill="#007CBA"/>
<path d="M9.25385 56.117C9.62643 55.7587 9.63801 55.1662 9.27972 54.7937C8.92143 54.4211 8.32894 54.4095 7.95636 54.7678C7.58378 55.1261 7.57219 55.7185 7.93049 56.0911C8.28878 56.4637 8.88127 56.4753 9.25385 56.117Z" fill="#E1E4E5"/>
<path d="M73.3964 48.6702C73.9133 48.6702 74.3323 48.2512 74.3323 47.7343C74.3323 47.2174 73.9133 46.7983 73.3964 46.7983C72.8795 46.7983 72.4604 47.2174 72.4604 47.7343C72.4604 48.2512 72.8795 48.6702 73.3964 48.6702Z" fill="#E1E4E5"/>
<path d="M6.01733 38.9445C7.68105 38.9445 9.02977 37.5959 9.02977 35.9322C9.02977 34.2686 7.68105 32.9199 6.01733 32.9199C4.3536 32.9199 3.00488 34.2686 3.00488 35.9322C3.00488 37.5959 4.3536 38.9445 6.01733 38.9445Z" fill="#007CBA"/>
<path d="M60.6204 69.2492C62.2841 69.2492 63.6328 67.9006 63.6328 66.2369C63.6328 64.5733 62.2841 63.2246 60.6204 63.2246C58.9566 63.2246 57.6079 64.5733 57.6079 66.2369C57.6079 67.9006 58.9566 69.2492 60.6204 69.2492Z" fill="#007CBA"/>
<path d="M40.0009 42.0801V52.3586M40.0035 34.0852C40.318 34.0852 40.5743 33.8289 40.5718 33.5143C40.5666 33.1985 40.3077 32.9473 39.9918 32.9512C39.6837 32.9564 39.4339 33.2049 39.4287 33.5143C39.4287 33.8302 39.685 34.0852 40.0009 34.0852" stroke="white" stroke-width="3.8835" stroke-linecap="round" stroke-linejoin="round"/>
<defs>
<linearGradient id="paint0_linear_1815_6621" x1="48.1914" y1="1.53608" x2="48.9888" y2="108.27" gradientUnits="userSpaceOnUse">
<stop stop-color="white"/>
<stop offset="1" stop-color="#EEEEEE"/>
</linearGradient>
<linearGradient id="paint1_linear_1815_6621" x1="31.8138" y1="85.4866" x2="31.01" y2="-21.6398" gradientUnits="userSpaceOnUse">
<stop stop-color="white"/>
<stop offset="1" stop-color="#EEEEEE"/>
</linearGradient>
</defs>
</svg>
