<svg width="79" height="79" viewBox="0 0 79 79" fill="none" xmlns="http://www.w3.org/2000/svg">
<g clip-path="url(#clip0_1885_2295)">
<path fill-rule="evenodd" clip-rule="evenodd" d="M55.6174 60.3914H21.5227C19.5006 60.3914 17.8613 58.5724 17.8613 56.3284C17.8613 54.0844 19.5006 52.2654 21.5227 52.2654H34.3772C35.8204 52.2654 36.9906 50.9675 36.9911 49.3662L36.9912 49.2291C36.9919 47.7007 35.8755 46.461 34.4982 46.461H34.3863C30.7542 46.461 27.8249 43.1774 27.8736 39.1475C27.8801 38.6045 27.8802 38.0617 27.874 37.5184C27.8272 33.4901 30.7556 30.2089 34.3747 30.2089H50.1989C51.8176 30.2089 53.1296 28.7529 53.1296 26.9568C53.1296 24.1732 55.1628 21.917 57.6711 21.917H61.1414C63.6493 21.917 65.6827 24.1732 65.6827 26.9568V36.133C65.6827 38.723 67.5748 40.8225 69.9086 40.8225H71.9593C75.1781 40.8225 77.7875 43.7182 77.7875 47.2902C77.7875 50.8623 75.1781 53.758 71.9593 53.758H61.3515C59.8724 53.758 58.7183 55.0996 58.7602 56.7402C58.7608 56.7699 58.7616 56.7993 58.7622 56.829C58.8055 58.7843 57.38 60.3914 55.6174 60.3914Z" fill="url(#paint0_linear_1885_2295)"/>
<path fill-rule="evenodd" clip-rule="evenodd" d="M23.8733 18.4893H59.4488C61.5586 18.4893 63.2691 20.3927 63.2691 22.7409C63.2691 25.089 61.5586 26.9925 59.4488 26.9925H46.0359C44.5301 26.9925 43.3092 28.3505 43.3085 30.0262L43.3084 30.1698C43.3077 31.769 44.4725 33.0662 45.9097 33.0662H46.0263C49.8164 33.0662 52.8728 36.5023 52.822 40.7191C52.8152 41.2874 52.815 41.8557 52.8216 42.424C52.8704 46.6391 49.8148 50.0727 46.0385 50.0727H29.5271C27.8381 50.0727 26.4691 51.5964 26.4691 53.4758C26.4691 56.3885 24.3476 58.7495 21.7305 58.7495H18.1095C15.4924 58.7495 13.3708 56.3885 13.3708 53.4758V43.8737C13.3708 41.1634 11.3966 38.9664 8.96128 38.9664H6.82166C3.46309 38.9664 0.740234 35.9364 0.740234 32.1986C0.740234 28.4608 3.46309 25.4307 6.82166 25.4307H17.8901C19.4334 25.4307 20.6377 24.0267 20.5941 22.31L20.5918 22.2171C20.5466 20.171 22.0341 18.4893 23.8733 18.4893Z" fill="url(#paint1_linear_1885_2295)"/>
<path d="M57.7442 42.7453C59.3899 45.8099 58.4703 50.377 58.4703 50.377C58.4703 50.377 53.5999 48.9199 51.9541 45.8529C50.3082 42.7859 50.27 39.6066 51.8704 38.7491C53.4685 37.8915 56.0984 39.6806 57.7442 42.7453ZM10.6373 59.0805C11.4536 58.3667 11.6865 56.9334 11.6865 56.9334C11.6865 56.9334 10.1048 56.8251 9.28868 57.539C8.47247 58.2527 8.11229 59.1767 8.4849 59.6025C8.85763 60.0284 9.82087 59.7949 10.6373 59.0805ZM64.9517 15.7971C64.0816 16.4438 63.7355 17.854 63.7355 17.854C63.7355 17.854 65.3037 18.0875 66.1739 17.4408C67.0441 16.794 67.4765 15.9015 67.1388 15.4473C66.8011 14.9933 65.8224 15.1496 64.9517 15.7971Z" fill="#A2A2A2"/>
<path d="M23.1117 62.9443C23.6576 62.4194 24.5094 62.4193 25.0142 62.9443C25.519 63.4692 25.4856 64.3203 24.9397 64.8453C24.3937 65.3703 23.542 65.3703 23.0372 64.8454C22.5324 64.3205 22.5657 63.4693 23.1117 62.9443Z" fill="#FB0044"/>
<path d="M73.8276 29.4957C72.7982 29.4755 71.9793 28.6568 71.9987 27.667C72.0181 26.6772 72.8683 25.8911 73.8977 25.9113C74.9272 25.9314 75.746 26.7501 75.7266 27.7399C75.7073 28.7297 74.8571 29.5158 73.8276 29.4957Z" fill="#FB0044"/>
<path d="M8.66085 50.7505C8.28977 51.1074 8.27822 51.6975 8.63506 52.0686C8.9919 52.4397 9.582 52.4512 9.95309 52.0944C10.3242 51.7375 10.3357 51.1474 9.97888 50.7763C9.62204 50.4052 9.03194 50.3937 8.66085 50.7505Z" fill="#A2A2A2"/>
<path d="M63.3104 23.3083C63.7612 23.0596 63.9251 22.4926 63.6764 22.0418C63.4278 21.591 62.8608 21.4271 62.41 21.6758C61.9592 21.9244 61.7953 22.4914 62.044 22.9422C62.2926 23.393 62.8596 23.5569 63.3104 23.3083Z" fill="#A2A2A2"/>
<path d="M73.7822 44.681C74.297 44.6911 74.7224 44.282 74.7325 43.7673C74.7425 43.2526 74.3334 42.8271 73.8187 42.8171C73.304 42.807 72.8786 43.2161 72.8685 43.7308C72.8584 44.2455 73.2675 44.671 73.7822 44.681Z" fill="#A2A2A2"/>
<path d="M6.08216 30.6252C7.15909 30.0312 8.51363 30.4227 9.10761 31.4996C9.70159 32.5766 9.31009 33.9311 8.23316 34.5251C7.15623 35.1191 5.80169 34.7276 5.2077 33.6506C4.61372 32.5737 5.00523 31.2192 6.08216 30.6252Z" fill="#FB0044"/>
<path d="M15.0844 18.1138C15.5947 17.8323 16.2365 18.0178 16.5179 18.5281C16.7994 19.0384 16.6139 19.6802 16.1036 19.9616C15.5933 20.243 14.9515 20.0575 14.6701 19.5473C14.3887 19.037 14.5742 18.3952 15.0844 18.1138Z" fill="#A2A2A2"/>
<path d="M63.8924 61.4956C62.7386 61.1621 62.0735 59.9563 62.407 58.8024C62.7405 57.6486 63.9463 56.9835 65.1002 57.317C66.2541 57.6505 66.9191 58.8563 66.5856 60.0102C66.2521 61.164 65.0463 61.8291 63.8924 61.4956Z" fill="#FB0044"/>
<path fill-rule="evenodd" clip-rule="evenodd" d="M16.9609 45.5252V33.0403C16.9609 28.8403 19.1947 24.9575 22.8233 22.8443L34.6211 15.978C36.4231 14.9297 38.4706 14.3774 40.5554 14.3774C42.6402 14.3774 44.6877 14.9297 46.4897 15.978L58.2877 22.8443C61.9187 24.9575 64.1525 28.8403 64.1525 33.0403V45.5252C64.1525 49.7252 61.9187 53.6079 58.2903 55.7211L46.4924 62.5875C44.6904 63.6358 42.6428 64.188 40.558 64.188C38.4733 64.188 36.4257 63.6358 34.6237 62.5875L22.8259 55.7211C19.1947 53.6079 16.9609 49.7252 16.9609 45.5252Z" fill="#FB0044"/>
<path d="M40.5578 39.2831V27.4854M40.5551 48.4594C40.1934 48.4594 39.8997 48.7529 39.9024 49.1148C39.9024 49.2886 39.9715 49.4553 40.0944 49.5782C40.2173 49.7011 40.384 49.7701 40.5578 49.7702C40.7316 49.7701 40.8982 49.701 41.0211 49.5781C41.144 49.4552 41.2131 49.2886 41.2132 49.1148C41.2131 49.0285 41.196 48.9431 41.1629 48.8635C41.1297 48.7838 41.0812 48.7115 41.0201 48.6506C40.959 48.5898 40.8864 48.5415 40.8067 48.5087C40.7269 48.4759 40.6414 48.4591 40.5551 48.4594Z" stroke="white" stroke-width="3.93269" stroke-linecap="round" stroke-linejoin="round"/>
<path d="M74.4142 36.9472L73.0013 35.5343L74.4142 34.1213L75.8271 35.5343L74.4142 36.9472ZM52.7353 16.3008L51.3224 14.888L52.7353 13.4751L54.1482 14.888L52.7353 16.3008ZM8.38558 44.5276L6.97266 43.1148L8.38558 41.7019L9.79838 43.1148L8.38558 44.5276Z" stroke="#A2A2A2" stroke-width="0.750097" stroke-linecap="round" stroke-linejoin="round"/>
</g>
<defs>
<linearGradient id="paint0_linear_1885_2295" x1="46.5467" y1="0.345992" x2="47.3084" y2="102.253" gradientUnits="userSpaceOnUse">
<stop stop-color="white"/>
<stop offset="1" stop-color="#EEEEEE"/>
</linearGradient>
<linearGradient id="paint1_linear_1885_2295" x1="33.3379" y1="81.3217" x2="32.5385" y2="-25.3156" gradientUnits="userSpaceOnUse">
<stop stop-color="white"/>
<stop offset="1" stop-color="#EEEEEE"/>
</linearGradient>
<clipPath id="clip0_1885_2295">
<rect width="79" height="79" fill="white"/>
</clipPath>
</defs>
</svg>
