<svg width="358" height="364" viewBox="0 0 358 364" fill="none" xmlns="http://www.w3.org/2000/svg">
<path d="M340.417 326.351C370.476 306.242 356.857 253.474 337.666 222.774C334.471 217.658 330.751 212.66 329.454 206.769C326.657 194.055 335.682 182.203 340.784 170.233C346.66 156.454 360.826 119.784 331.236 117.175C324.524 116.58 317.703 117.865 311.413 120.293C298.098 125.416 287.753 136.172 275.158 142.878C262.562 149.576 244.583 150.837 236.121 139.329C228.307 128.714 233.058 113.329 240.973 102.793C248.88 92.2562 259.687 83.7253 265.273 71.7868C270.86 59.8482 268.203 42.2693 255.694 38.1801C235.691 31.6468 220.087 64.6502 199.42 60.7255C190.607 59.057 184.481 50.8942 180.973 42.6218C177.464 34.3494 175.62 25.2937 170.838 17.6871C159.22 -0.776924 131.739 -4.97579 112.908 5.9914C94.0776 16.9508 84.0684 39.6372 84.1387 61.4619C84.1778 74.0664 85.8108 89.6084 75.1765 96.3298C62.5341 104.32 46.1256 91.0263 31.4673 93.9718C16.8246 96.9095 10.1518 115.233 13.0819 129.913C16.012 144.593 25.3649 157.01 31.983 170.429C38.5933 183.848 42.2422 200.769 33.9442 213.217C27.2558 223.252 14.4883 227.725 7.34672 237.438C-0.05275 247.489 -1.01382 262.835 0.775491 275.189C3.08831 291.146 7.31547 312.266 18.5827 325.019C57.5725 369.147 124.754 363.796 176.816 363.796C228.878 363.796 292.769 358.226 340.425 326.343L340.417 326.351Z" fill="#ef96f7"/>
</svg>
